<mxfile host="app.diagrams.net" modified="2022-08-04T02:53:49.018Z" agent="5.0 (Windows NT 10.0; Win64; x64) AppleWebKit/537.36 (KHTML, like Gecko) Chrome/103.0.0.0 Safari/537.36" etag="5EfOTFJ6G5qyt6rjeERn" version="20.2.2" type="github">
  <diagram id="1JJFmrZDCJCVyrGSCIPN" name="Page-1">
    <mxGraphModel dx="2062" dy="1154" grid="1" gridSize="10" guides="1" tooltips="1" connect="1" arrows="1" fold="1" page="1" pageScale="1" pageWidth="827" pageHeight="1169" math="0" shadow="0">
      <root>
        <mxCell id="0" />
        <mxCell id="1" parent="0" />
        <mxCell id="SlVcP2jCpKMH03LrzHKm-3" value="&lt;h1&gt;&lt;br&gt;&lt;/h1&gt;" style="text;html=1;strokeColor=none;fillColor=none;spacing=5;spacingTop=-20;whiteSpace=wrap;overflow=hidden;rounded=0;" parent="1" vertex="1">
          <mxGeometry x="200" y="390" width="220" height="40" as="geometry" />
        </mxCell>
        <mxCell id="SlVcP2jCpKMH03LrzHKm-4" value="" style="rounded=0;whiteSpace=wrap;html=1;fontSize=18;" parent="1" vertex="1">
          <mxGeometry x="120" y="380" width="600" height="380" as="geometry" />
        </mxCell>
        <mxCell id="SlVcP2jCpKMH03LrzHKm-8" value="&lt;h1 style=&quot;text-align: left;&quot;&gt;OpUSignalShm&lt;/h1&gt;" style="rounded=0;whiteSpace=wrap;html=1;" parent="1" vertex="1">
          <mxGeometry x="120" y="220" width="600" height="90" as="geometry" />
        </mxCell>
        <mxCell id="SlVcP2jCpKMH03LrzHKm-9" value="&lt;h1&gt;&lt;font style=&quot;font-size: 24px;&quot;&gt;USignalShmManager&lt;/font&gt;&lt;/h1&gt;" style="text;html=1;strokeColor=none;fillColor=none;spacing=5;spacingTop=-20;whiteSpace=wrap;overflow=hidden;rounded=0;fontSize=18;align=center;" parent="1" vertex="1">
          <mxGeometry x="280" y="380" width="280" height="65" as="geometry" />
        </mxCell>
        <mxCell id="SlVcP2jCpKMH03LrzHKm-14" value="" style="endArrow=classic;startArrow=none;html=1;rounded=0;fontFamily=Helvetica;fontSize=24;entryX=0.5;entryY=1;entryDx=0;entryDy=0;strokeWidth=2;startFill=0;" parent="1" target="SlVcP2jCpKMH03LrzHKm-13" edge="1">
          <mxGeometry width="50" height="50" relative="1" as="geometry">
            <mxPoint x="520" y="930" as="sourcePoint" />
            <mxPoint x="390" y="760" as="targetPoint" />
          </mxGeometry>
        </mxCell>
        <mxCell id="SlVcP2jCpKMH03LrzHKm-15" value="" style="endArrow=none;startArrow=classic;html=1;rounded=0;fontFamily=Helvetica;fontSize=24;exitX=0.33;exitY=0.007;exitDx=0;exitDy=0;exitPerimeter=0;strokeWidth=2;entryX=0.5;entryY=1;entryDx=0;entryDy=0;endFill=0;" parent="1" target="SlVcP2jCpKMH03LrzHKm-12" edge="1" source="SlVcP2jCpKMH03LrzHKm-2">
          <mxGeometry width="50" height="50" relative="1" as="geometry">
            <mxPoint x="329.5000000000001" y="830.6300000000001" as="sourcePoint" />
            <mxPoint x="330" y="730" as="targetPoint" />
          </mxGeometry>
        </mxCell>
        <mxCell id="SlVcP2jCpKMH03LrzHKm-18" style="edgeStyle=orthogonalEdgeStyle;rounded=0;orthogonalLoop=1;jettySize=auto;html=1;exitX=0;exitY=0.5;exitDx=0;exitDy=0;fontFamily=Helvetica;fontSize=24;strokeWidth=2;startArrow=classic;startFill=1;entryX=0.5;entryY=0;entryDx=0;entryDy=0;" parent="1" source="SlVcP2jCpKMH03LrzHKm-16" target="SlVcP2jCpKMH03LrzHKm-10" edge="1">
          <mxGeometry relative="1" as="geometry">
            <mxPoint x="720.5999999999999" y="500.9100000000001" as="targetPoint" />
            <mxPoint x="920" y="500" as="sourcePoint" />
            <Array as="points">
              <mxPoint x="419" y="500" />
            </Array>
          </mxGeometry>
        </mxCell>
        <mxCell id="SlVcP2jCpKMH03LrzHKm-16" value="&lt;b&gt;Usignal Shm&lt;/b&gt;" style="rounded=0;whiteSpace=wrap;html=1;fontFamily=Helvetica;fontSize=24;" parent="1" vertex="1">
          <mxGeometry x="800" y="430" width="320" height="140" as="geometry" />
        </mxCell>
        <mxCell id="SlVcP2jCpKMH03LrzHKm-17" value="" style="endArrow=classic;html=1;rounded=0;fontFamily=Helvetica;fontSize=24;exitX=0.5;exitY=1;exitDx=0;exitDy=0;entryX=0.5;entryY=0;entryDx=0;entryDy=0;fontStyle=1;strokeWidth=2;" parent="1" source="SlVcP2jCpKMH03LrzHKm-8" target="SlVcP2jCpKMH03LrzHKm-4" edge="1">
          <mxGeometry width="50" height="50" relative="1" as="geometry">
            <mxPoint x="330" y="370" as="sourcePoint" />
            <mxPoint x="310" y="370" as="targetPoint" />
          </mxGeometry>
        </mxCell>
        <mxCell id="SlVcP2jCpKMH03LrzHKm-20" value="&lt;font style=&quot;font-size: 16px;&quot;&gt;msg &amp;lt;===&amp;gt; shm data&lt;/font&gt;" style="text;html=1;strokeColor=none;fillColor=none;align=center;verticalAlign=middle;whiteSpace=wrap;rounded=0;fontFamily=Helvetica;fontSize=1;" parent="1" vertex="1">
          <mxGeometry x="500" y="470" width="180" height="30" as="geometry" />
        </mxCell>
        <mxCell id="E3ptVsQnskSNDq-zL1DE-8" value="&lt;font style=&quot;font-size: 16px;&quot;&gt;msg &amp;lt;=&amp;gt; packet&lt;/font&gt;" style="text;html=1;strokeColor=none;fillColor=none;align=center;verticalAlign=middle;whiteSpace=wrap;rounded=0;fontFamily=Helvetica;fontSize=1;" vertex="1" parent="1">
          <mxGeometry x="330" y="753" width="180" height="30" as="geometry" />
        </mxCell>
        <mxCell id="E3ptVsQnskSNDq-zL1DE-9" value="" style="group" vertex="1" connectable="0" parent="1">
          <mxGeometry x="120" y="870" width="600" height="130" as="geometry" />
        </mxCell>
        <mxCell id="SlVcP2jCpKMH03LrzHKm-2" value="&lt;b&gt;&lt;font style=&quot;font-size: 24px;&quot;&gt;DataPortal&lt;/font&gt;&lt;/b&gt;" style="rounded=0;whiteSpace=wrap;html=1;" parent="E3ptVsQnskSNDq-zL1DE-9" vertex="1">
          <mxGeometry width="600" height="130" as="geometry" />
        </mxCell>
        <mxCell id="E3ptVsQnskSNDq-zL1DE-4" value="up_flow" style="rounded=0;whiteSpace=wrap;html=1;" vertex="1" parent="E3ptVsQnskSNDq-zL1DE-9">
          <mxGeometry x="127.5" width="142.5" height="30" as="geometry" />
        </mxCell>
        <mxCell id="E3ptVsQnskSNDq-zL1DE-5" value="down_flow" style="rounded=0;whiteSpace=wrap;html=1;" vertex="1" parent="E3ptVsQnskSNDq-zL1DE-9">
          <mxGeometry x="327.5" width="142.5" height="30" as="geometry" />
        </mxCell>
        <mxCell id="E3ptVsQnskSNDq-zL1DE-18" value="" style="group" vertex="1" connectable="0" parent="1">
          <mxGeometry x="247.5" y="505" width="392.5" height="255" as="geometry" />
        </mxCell>
        <mxCell id="SlVcP2jCpKMH03LrzHKm-10" value="" style="rounded=0;whiteSpace=wrap;html=1;fontSize=24;" parent="E3ptVsQnskSNDq-zL1DE-18" vertex="1">
          <mxGeometry y="35" width="342.5" height="220" as="geometry" />
        </mxCell>
        <mxCell id="SlVcP2jCpKMH03LrzHKm-11" value="&lt;h1&gt;&lt;font style=&quot;font-size: 24px;&quot;&gt;USignal&lt;/font&gt;&lt;/h1&gt;" style="text;html=1;strokeColor=none;fillColor=none;spacing=5;spacingTop=-20;whiteSpace=wrap;overflow=hidden;rounded=0;fontSize=24;align=center;" parent="E3ptVsQnskSNDq-zL1DE-18" vertex="1">
          <mxGeometry x="77.5" width="190" height="80" as="geometry" />
        </mxCell>
        <mxCell id="SlVcP2jCpKMH03LrzHKm-12" value="&lt;span style=&quot;font-size: 14px;&quot;&gt;MsgSender&lt;/span&gt;" style="rounded=0;whiteSpace=wrap;html=1;fontSize=24;align=center;" parent="E3ptVsQnskSNDq-zL1DE-18" vertex="1">
          <mxGeometry y="105" width="142.5" height="150" as="geometry" />
        </mxCell>
        <mxCell id="SlVcP2jCpKMH03LrzHKm-13" value="&lt;font style=&quot;font-size: 14px;&quot;&gt;MsgReceiver&lt;/font&gt;" style="rounded=0;whiteSpace=wrap;html=1;fontSize=24;align=center;" parent="E3ptVsQnskSNDq-zL1DE-18" vertex="1">
          <mxGeometry x="202.5" y="105" width="140" height="150" as="geometry" />
        </mxCell>
        <mxCell id="E3ptVsQnskSNDq-zL1DE-6" value="encoder&lt;span style=&quot;color: rgba(0, 0, 0, 0); font-family: monospace; font-size: 0px; text-align: start;&quot;&gt;%3CmxGraphModel%3E%3Croot%3E%3CmxCell%20id%3D%220%22%2F%3E%3CmxCell%20id%3D%221%22%20parent%3D%220%22%2F%3E%3CmxCell%20id%3D%222%22%20value%3D%22up_flow%22%20style%3D%22rounded%3D0%3BwhiteSpace%3Dwrap%3Bhtml%3D1%3B%22%20vertex%3D%221%22%20parent%3D%221%22%3E%3CmxGeometry%20x%3D%22247.5%22%20y%3D%22930%22%20width%3D%22142.5%22%20height%3D%2230%22%20as%3D%22geometry%22%2F%3E%3C%2FmxCell%3E%3C%2Froot%3E%3C%2FmxGraphModel%3E&lt;/span&gt;" style="rounded=0;whiteSpace=wrap;html=1;" vertex="1" parent="E3ptVsQnskSNDq-zL1DE-18">
          <mxGeometry y="225" width="142.5" height="30" as="geometry" />
        </mxCell>
        <mxCell id="E3ptVsQnskSNDq-zL1DE-7" value="decoder" style="rounded=0;whiteSpace=wrap;html=1;" vertex="1" parent="E3ptVsQnskSNDq-zL1DE-18">
          <mxGeometry x="202.5" y="225" width="140" height="30" as="geometry" />
        </mxCell>
        <mxCell id="E3ptVsQnskSNDq-zL1DE-20" value="&lt;font style=&quot;font-size: 16px;&quot;&gt;packet transmission&lt;/font&gt;" style="text;html=1;strokeColor=none;fillColor=none;align=center;verticalAlign=middle;whiteSpace=wrap;rounded=0;fontFamily=Helvetica;fontSize=1;" vertex="1" parent="1">
          <mxGeometry x="330" y="840" width="180" height="30" as="geometry" />
        </mxCell>
      </root>
    </mxGraphModel>
  </diagram>
</mxfile>
